# 3ds Max Wavefront OBJ Exporter v0.97b - (c)2007 guruware
# File Created: 27.03.2014 10:48:15

mtllib test-building.mtl

#
# object Box001
#

v  -8.715410 -8.715410 0.000000
v  -8.715410 -26.146233 0.000000
v  -32.019398 -32.019398 0.000000
v  -26.146233 -8.715410 0.000000
v  8.715412 -8.715410 0.000000
v  8.715412 -26.146233 0.000000
v  26.146233 -8.715410 0.000000
v  32.019398 -32.019398 0.000000
v  -8.715410 8.715412 0.000000
v  -26.146233 8.715412 0.000000
v  8.715412 8.715412 0.000000
v  26.146233 8.715412 0.000000
v  -8.715410 26.146233 0.000000
v  -32.019398 32.019398 0.000000
v  8.715412 26.146233 0.000000
v  32.019398 32.019398 0.000000
v  -8.715410 -8.715410 58.656593
v  -26.146233 -8.715410 52.292465
v  -24.873775 -24.873775 46.258858
v  -8.715410 -26.146233 52.292465
v  8.715412 -8.715410 58.656593
v  8.715412 -26.146233 52.292465
v  26.146233 -8.715410 52.292465
v  24.873775 -24.873775 46.258858
v  -8.715410 8.715412 58.656593
v  -26.146233 8.715412 52.292465
v  8.715412 8.715412 58.656593
v  26.146233 8.715412 52.292465
v  -8.715410 26.146233 52.292465
v  -24.873775 24.873775 46.258858
v  8.715412 26.146233 52.292465
v  24.873775 24.873775 46.258858
v  -8.715410 -26.146233 17.430822
v  -32.019398 -32.019398 17.430822
v  8.715412 -26.146233 17.430822
v  32.019398 -32.019398 17.430822
v  -8.715410 -26.146233 34.861645
v  -32.019398 -32.019398 34.861645
v  8.715412 -21.486549 34.861645
v  -8.715410 -21.486549 34.861645
v  -8.715410 -21.486549 17.430822
v  8.715412 -21.486549 17.430822
v  32.019398 -32.019398 34.861645
v  8.715412 -26.146233 34.861645
v  26.146233 -8.715410 17.430822
v  26.146233 8.715412 17.430822
v  32.019398 32.019398 17.430822
v  26.146233 -8.715410 34.861645
v  21.486549 8.715412 34.861645
v  21.486549 -8.715410 34.861645
v  21.486549 -8.715410 17.430822
v  21.486549 8.715412 17.430822
v  32.019398 32.019398 34.861645
v  26.146233 8.715412 34.861645
v  8.715410 26.146233 17.430822
v  -8.715412 26.146233 17.430822
v  -32.019398 32.019398 17.430822
v  8.715410 26.146233 34.861645
v  -8.715412 21.486549 34.861645
v  8.715410 21.486549 34.861645
v  8.715410 21.486549 17.430822
v  -8.715412 21.486549 17.430822
v  -32.019398 32.019398 34.861645
v  -8.715412 26.146233 34.861645
v  -26.146233 8.715410 17.430822
v  -26.146233 -8.715412 17.430822
v  -26.146233 8.715410 34.861645
v  -21.486549 -8.715412 34.861645
v  -21.486549 8.715410 34.861645
v  -21.486549 8.715410 17.430822
v  -21.486549 -8.715412 17.430822
v  -26.146233 -8.715412 34.861645
# 72 vertices

vn 0.000000 0.000000 -1.000000
vn -0.172057 -0.172057 0.969945
vn -0.337206 -0.182460 0.923580
vn -0.337201 -0.337201 0.878971
vn -0.182460 -0.337206 0.923580
vn 0.168745 -0.168745 0.971108
vn 0.174033 -0.345329 0.922204
vn 0.345329 -0.174033 0.922204
vn 0.351648 -0.351648 0.867575
vn -0.168745 0.168745 0.971108
vn -0.345329 0.174033 0.922204
vn 0.172057 0.172057 0.969945
vn 0.337206 0.182460 0.923580
vn -0.174033 0.345329 0.922204
vn -0.351648 0.351648 0.867575
vn 0.182460 0.337206 0.923580
vn 0.337202 0.337202 0.878971
vn 0.164031 -0.986455 0.000000
vn 0.244382 -0.969679 0.000000
vn 0.123128 -0.992391 0.000000
vn -0.164031 -0.986455 0.000000
vn -0.123128 -0.992391 0.000000
vn -0.244382 -0.969679 0.000000
vn 0.161913 -0.980220 0.113808
vn 0.000000 -1.000000 0.000000
vn -0.241196 -0.957036 0.160952
vn -0.098383 -0.993311 0.060445
vn 0.041484 -0.995121 0.089518
vn -0.292776 -0.716725 0.632919
vn 0.034257 -0.999413 0.000000
vn -0.107569 -0.959692 0.259652
vn 0.986455 0.164031 0.000000
vn 0.969679 0.244382 0.000000
vn 0.992391 0.123128 0.000000
vn 0.986455 -0.164031 0.000000
vn 0.992391 -0.123128 0.000000
vn 0.969679 -0.244382 0.000000
vn 0.980220 0.161913 0.113808
vn 1.000000 0.000000 0.000000
vn 0.957036 -0.241196 0.160952
vn 0.993311 -0.098383 0.060445
vn 0.995121 0.041484 0.089518
vn 0.716725 -0.292776 0.632919
vn 0.999413 0.034257 0.000000
vn 0.959692 -0.107569 0.259652
vn -0.164031 0.986455 -0.000000
vn -0.244382 0.969679 0.000000
vn -0.244382 0.969679 -0.000000
vn -0.123128 0.992391 -0.000000
vn 0.164031 0.986455 0.000000
vn 0.123128 0.992391 0.000000
vn 0.244382 0.969679 0.000000
vn -0.164031 0.986455 0.000000
vn -0.161913 0.980220 0.113808
vn 0.000000 1.000000 0.000000
vn 0.241196 0.957036 0.160952
vn 0.098383 0.993311 0.060445
vn -0.041484 0.995121 0.089518
vn 0.292776 0.716725 0.632919
vn -0.034257 0.999413 0.000000
vn 0.107569 0.959692 0.259652
vn -0.986455 -0.164031 -0.000000
vn -0.969679 -0.244382 0.000000
vn -0.969679 -0.244382 -0.000000
vn -0.992391 -0.123128 -0.000000
vn -0.986455 0.164031 0.000000
vn -0.992391 0.123128 0.000000
vn -0.969679 0.244382 0.000000
vn -0.986455 -0.164031 0.000000
vn -0.980220 -0.161913 0.113808
vn -1.000000 0.000000 0.000000
vn -0.957036 0.241196 0.160952
vn -0.993311 0.098383 0.060445
vn -0.995121 -0.041484 0.089518
vn -0.716725 0.292776 0.632919
vn -0.999413 -0.034257 0.000000
vn -0.959692 0.107569 0.259652
vn 0.000000 0.000000 1.000000
# 78 vertex normals

vt 0.125256 0.211465 0.000000
vt 0.125256 0.297674 0.000000
vt 0.010000 0.326721 0.000000
vt 0.039047 0.211465 0.000000
vt 0.211465 0.211465 0.000000
vt 0.211465 0.297674 0.000000
vt 0.297674 0.211465 0.000000
vt 0.326721 0.326721 0.000000
vt 0.125256 0.125256 0.000000
vt 0.039047 0.125256 0.000000
vt 0.211465 0.125256 0.000000
vt 0.297674 0.125256 0.000000
vt 0.125256 0.039047 0.000000
vt 0.010000 0.010000 0.000000
vt 0.211465 0.039047 0.000000
vt 0.326721 0.010000 0.000000
vt 0.096209 0.420389 0.000000
vt 0.010000 0.420389 0.000000
vt 0.016293 0.340474 0.000000
vt 0.096209 0.334180 0.000000
vt 0.182418 0.420389 0.000000
vt 0.182418 0.334180 0.000000
vt 0.268627 0.420389 0.000000
vt 0.262333 0.340474 0.000000
vt 0.096209 0.506598 0.000000
vt 0.010000 0.506598 0.000000
vt 0.182418 0.506598 0.000000
vt 0.268627 0.506598 0.000000
vt 0.096209 0.592807 0.000000
vt 0.016293 0.586514 0.000000
vt 0.182418 0.592807 0.000000
vt 0.262333 0.586514 0.000000
vt 0.874744 0.182418 0.000000
vt 0.990000 0.182418 0.000000
vt 0.990000 0.268627 0.000000
vt 0.874744 0.268627 0.000000
vt 0.788535 0.182418 0.000000
vt 0.788535 0.268627 0.000000
vt 0.673279 0.182418 0.000000
vt 0.673279 0.268627 0.000000
vt 0.874744 0.096209 0.000000
vt 0.990000 0.096209 0.000000
vt 0.096209 0.686475 0.000000
vt 0.010000 0.686475 0.000000
vt 0.010000 0.600266 0.000000
vt 0.096209 0.600266 0.000000
vt 0.673279 0.096209 0.000000
vt 0.788535 0.096209 0.000000
vt 0.874744 0.010000 0.000000
vt 0.954659 0.039841 0.000000
vt 0.788535 0.010000 0.000000
vt 0.708619 0.039841 0.000000
vt 0.535645 0.463421 0.000000
vt 0.650902 0.463421 0.000000
vt 0.650902 0.549630 0.000000
vt 0.535645 0.549630 0.000000
vt 0.449437 0.463421 0.000000
vt 0.449437 0.549630 0.000000
vt 0.334180 0.463421 0.000000
vt 0.334180 0.549630 0.000000
vt 0.535645 0.377213 0.000000
vt 0.650902 0.377213 0.000000
vt 0.759488 0.658216 0.000000
vt 0.673279 0.658216 0.000000
vt 0.673279 0.572007 0.000000
vt 0.759488 0.572007 0.000000
vt 0.334180 0.377213 0.000000
vt 0.449437 0.377213 0.000000
vt 0.535645 0.291004 0.000000
vt 0.615561 0.320845 0.000000
vt 0.449437 0.291004 0.000000
vt 0.369521 0.320845 0.000000
vt 0.535645 0.182418 0.000000
vt 0.650902 0.182418 0.000000
vt 0.650902 0.268627 0.000000
vt 0.535645 0.268627 0.000000
vt 0.449437 0.182418 0.000000
vt 0.449437 0.268627 0.000000
vt 0.334180 0.182418 0.000000
vt 0.334180 0.268627 0.000000
vt 0.535645 0.096209 0.000000
vt 0.650902 0.096209 0.000000
vt 0.759488 0.377213 0.000000
vt 0.673279 0.377213 0.000000
vt 0.673279 0.291004 0.000000
vt 0.759488 0.291004 0.000000
vt 0.334180 0.096209 0.000000
vt 0.449437 0.096209 0.000000
vt 0.535645 0.010000 0.000000
vt 0.615561 0.039841 0.000000
vt 0.449437 0.010000 0.000000
vt 0.369521 0.039841 0.000000
vt 0.535645 0.744425 0.000000
vt 0.650902 0.744425 0.000000
vt 0.650902 0.830634 0.000000
vt 0.535645 0.830634 0.000000
vt 0.449437 0.744425 0.000000
vt 0.449437 0.830634 0.000000
vt 0.334180 0.744425 0.000000
vt 0.334180 0.830634 0.000000
vt 0.535645 0.658216 0.000000
vt 0.650902 0.658216 0.000000
vt 0.420389 0.939220 0.000000
vt 0.334180 0.939220 0.000000
vt 0.334180 0.853011 0.000000
vt 0.420389 0.853011 0.000000
vt 0.334180 0.658216 0.000000
vt 0.449437 0.658216 0.000000
vt 0.535645 0.572007 0.000000
vt 0.615561 0.601848 0.000000
vt 0.449437 0.572007 0.000000
vt 0.369521 0.601848 0.000000
vt 0.212254 0.716980 0.000000
vt 0.126045 0.716980 0.000000
vt 0.126045 0.693934 0.000000
vt 0.212254 0.693934 0.000000
vt 0.103668 0.600266 0.000000
vt 0.189877 0.600266 0.000000
vt 0.189877 0.623312 0.000000
vt 0.103668 0.623312 0.000000
vt 0.427848 0.853011 0.000000
vt 0.514057 0.853011 0.000000
vt 0.514057 0.876057 0.000000
vt 0.427848 0.876057 0.000000
vt 0.969200 0.595053 0.000000
vt 0.882991 0.595053 0.000000
vt 0.882991 0.572007 0.000000
vt 0.969200 0.572007 0.000000
vt 0.766947 0.291004 0.000000
vt 0.853155 0.291004 0.000000
vt 0.853155 0.314049 0.000000
vt 0.766947 0.314049 0.000000
vt 0.673279 0.665675 0.000000
vt 0.759488 0.665675 0.000000
vt 0.759488 0.688721 0.000000
vt 0.673279 0.688721 0.000000
vt 0.882991 0.291004 0.000000
vt 0.969200 0.291004 0.000000
vt 0.969200 0.314049 0.000000
vt 0.882991 0.314049 0.000000
vt 0.096209 0.716980 0.000000
vt 0.010000 0.716980 0.000000
vt 0.010000 0.693934 0.000000
vt 0.096209 0.693934 0.000000
vt 0.766947 0.343885 0.000000
vt 0.853155 0.343885 0.000000
vt 0.853155 0.366931 0.000000
vt 0.766947 0.366931 0.000000
vt 0.789324 0.665675 0.000000
vt 0.875533 0.665675 0.000000
vt 0.875533 0.688721 0.000000
vt 0.789324 0.688721 0.000000
vt 0.622643 0.876057 0.000000
vt 0.536434 0.876057 0.000000
vt 0.536434 0.853011 0.000000
vt 0.622643 0.853011 0.000000
vt 0.759488 0.741603 0.000000
vt 0.673279 0.741603 0.000000
vt 0.673279 0.718557 0.000000
vt 0.759488 0.718557 0.000000
vt 0.096209 0.769861 0.000000
vt 0.010000 0.769861 0.000000
vt 0.010000 0.746816 0.000000
vt 0.096209 0.746816 0.000000
vt 0.427848 0.898434 0.000000
vt 0.514057 0.898434 0.000000
vt 0.514057 0.921479 0.000000
vt 0.427848 0.921479 0.000000
vt 0.853155 0.412354 0.000000
vt 0.766947 0.412354 0.000000
vt 0.766947 0.389308 0.000000
vt 0.853155 0.389308 0.000000
vt 0.853155 0.595053 0.000000
vt 0.766947 0.595053 0.000000
vt 0.766947 0.572007 0.000000
vt 0.853155 0.572007 0.000000
# 176 texture coords

g Box001
usemtl 03___Default
s 2
f -72/-176/-78 -71/-175/-78 -70/-174/-78 -69/-173/-78 
f -68/-172/-78 -67/-171/-78 -71/-175/-78 -72/-176/-78 
f -66/-170/-78 -65/-169/-78 -67/-171/-78 -68/-172/-78 
f -64/-168/-78 -72/-176/-78 -69/-173/-78 -63/-167/-78 
f -62/-166/-78 -68/-172/-78 -72/-176/-78 -64/-168/-78 
f -61/-165/-78 -66/-170/-78 -68/-172/-78 -62/-166/-78 
f -60/-164/-78 -64/-168/-78 -63/-167/-78 -59/-163/-78 
f -58/-162/-78 -62/-166/-78 -64/-168/-78 -60/-164/-78 
f -57/-161/-78 -61/-165/-78 -62/-166/-78 -58/-162/-78 
s 4
f -56/-160/-77 -55/-159/-76 -54/-158/-75 -53/-157/-74 
f -52/-156/-73 -56/-160/-77 -53/-157/-74 -51/-155/-72 
f -50/-154/-71 -52/-156/-73 -51/-155/-72 -49/-153/-70 
f -48/-152/-69 -47/-151/-68 -55/-159/-76 -56/-160/-77 
f -46/-150/-67 -48/-152/-69 -56/-160/-77 -52/-156/-73 
f -45/-149/-66 -46/-150/-67 -52/-156/-73 -50/-154/-71 
f -44/-148/-65 -43/-147/-64 -47/-151/-68 -48/-152/-69 
f -42/-146/-63 -44/-148/-65 -48/-152/-69 -46/-150/-67 
f -41/-145/-62 -42/-146/-63 -46/-150/-67 -45/-149/-66 
s 8
f -40/-144/-61 -39/-143/-60 -70/-142/-60 -71/-141/-59 
f -38/-140/-58 -40/-144/-61 -71/-141/-59 -67/-139/-57 
f -37/-138/-56 -38/-140/-58 -67/-139/-57 -65/-137/-56 
f -36/-136/-61 -35/-135/-55 -39/-143/-60 -40/-144/-61 
f -34/-134/-54 -33/-133/-54 -32/-132/-54 -31/-131/-54 
f -30/-130/-53 -29/-129/-52 -38/-140/-58 -37/-138/-56 
f -53/-128/-51 -54/-127/-50 -35/-135/-55 -36/-136/-61 
f -51/-126/-49 -53/-128/-51 -36/-136/-61 -29/-129/-52 
f -49/-125/-48 -51/-126/-49 -29/-129/-52 -30/-130/-53 
s 16
f -28/-124/-47 -37/-123/-46 -65/-122/-46 -66/-121/-45 
f -27/-120/-44 -28/-124/-47 -66/-121/-45 -61/-119/-43 
f -26/-118/-42 -27/-120/-44 -61/-119/-43 -57/-117/-42 
f -25/-116/-47 -30/-115/-41 -37/-123/-46 -28/-124/-47 
f -24/-114/-40 -23/-113/-40 -22/-112/-40 -21/-111/-40 
f -20/-110/-39 -19/-109/-38 -27/-120/-44 -26/-118/-42 
f -50/-108/-37 -49/-107/-36 -30/-115/-41 -25/-116/-47 
f -45/-106/-35 -50/-108/-37 -25/-116/-47 -19/-109/-38 
f -41/-105/-34 -45/-106/-35 -19/-109/-38 -20/-110/-39 
s 32
f -18/-104/-33 -26/-103/-32 -57/-102/-31 -58/-101/-30 
f -17/-100/-29 -18/-104/-33 -58/-101/-30 -60/-99/-28 
f -16/-98/-27 -17/-100/-29 -60/-99/-28 -59/-97/-27 
f -15/-96/-26 -20/-95/-25 -26/-103/-32 -18/-104/-33 
f -14/-94/-24 -13/-93/-24 -12/-92/-24 -11/-91/-24 
f -10/-90/-23 -9/-89/-22 -17/-100/-29 -16/-98/-27 
f -42/-88/-21 -41/-87/-20 -20/-95/-25 -15/-96/-26 
f -44/-86/-19 -42/-88/-21 -15/-96/-26 -9/-89/-22 
f -43/-85/-18 -44/-86/-19 -9/-89/-22 -10/-90/-23 
s 64
f -8/-84/-17 -16/-83/-16 -59/-82/-15 -63/-81/-14 
f -7/-80/-13 -8/-84/-17 -63/-81/-14 -69/-79/-12 
f -39/-78/-11 -7/-80/-13 -69/-79/-12 -70/-77/-11 
f -6/-76/-10 -10/-75/-9 -16/-83/-16 -8/-84/-17 
f -5/-74/-8 -4/-73/-8 -3/-72/-8 -2/-71/-8 
f -35/-70/-7 -1/-69/-6 -7/-80/-13 -39/-78/-11 
f -47/-68/-5 -43/-67/-4 -10/-75/-9 -6/-76/-10 
f -55/-66/-3 -47/-68/-5 -6/-76/-10 -1/-69/-6 
f -54/-65/-2 -55/-66/-3 -1/-69/-6 -35/-70/-7 
s off
f -40/-64/-1 -38/-63/-1 -31/-62/-1 -32/-61/-1 
f -38/-60/-8 -29/-59/-8 -34/-58/-8 -31/-57/-8 
f -29/-56/-78 -36/-55/-78 -33/-54/-78 -34/-53/-78 
f -36/-52/-40 -40/-51/-40 -32/-50/-40 -33/-49/-40 
f -28/-48/-1 -27/-47/-1 -21/-46/-1 -22/-45/-1 
f -27/-44/-54 -19/-43/-54 -24/-42/-54 -21/-41/-54 
f -19/-40/-78 -25/-39/-78 -23/-38/-78 -24/-37/-78 
f -25/-36/-24 -28/-35/-24 -22/-34/-24 -23/-33/-24 
f -18/-32/-1 -17/-31/-1 -11/-30/-1 -12/-29/-1 
f -17/-28/-40 -9/-27/-40 -14/-26/-40 -11/-25/-40 
f -9/-24/-78 -15/-23/-78 -13/-22/-78 -14/-21/-78 
f -15/-20/-8 -18/-19/-8 -12/-18/-8 -13/-17/-8 
f -8/-16/-1 -7/-15/-1 -2/-14/-1 -3/-13/-1 
f -7/-12/-24 -1/-11/-24 -5/-10/-24 -2/-9/-24 
f -1/-8/-78 -6/-7/-78 -4/-6/-78 -5/-5/-78 
f -6/-4/-54 -8/-3/-54 -3/-2/-54 -4/-1/-54 
# 70 polygons

